<?xml version="1.0" encoding="iso-8859-1"?>
<!-- Generator: Adobe Illustrator 23.0.1, SVG Export Plug-In . SVG Version: 6.00 Build 0)  -->
<svg version="1.1" id="Layer_1" xmlns="http://www.w3.org/2000/svg" xmlns:xlink="http://www.w3.org/1999/xlink" x="0px" y="0px"
	 viewBox="0 0 131.353 73.353" style="enable-background:new 0 0 131.353 73.353;" xml:space="preserve">
<image style="display:none;overflow:visible;" width="216" height="233" xlink:href="2CE69601.jpg"  transform="matrix(1 0 0 1 -41.3703 -79.3703)">
</image>
<path style="fill:#FFFFFF;" d="M132.63,82.63h-135c-6.6,0-12-5.4-12-12v-66c0-6.6,5.4-12,12-12h135c6.6,0,12,5.4,12,12v66
	C144.63,77.23,139.23,82.63,132.63,82.63z"/>
<g>
	<g>
		<g>
			<rect x="2.677" y="2.677" style="fill:none;stroke:#2B3186;stroke-width:4;stroke-miterlimit:10;" width="126" height="68"/>
		</g>
		<g>
			<path style="fill:none;stroke:#2B3186;stroke-width:4;stroke-miterlimit:10;" d="M121.677,18.617v36.12
				c-0.33-0.04-0.66-0.06-1-0.06c-4.42,0-8,3.58-8,8c0,0.34,0.02,0.67,0.06,1h-94.12c0.04-0.33,0.06-0.66,0.06-1c0-4.42-3.58-8-8-8
				c-0.34,0-0.67,0.02-1,0.06v-36.12c0.33,0.04,0.66,0.06,1,0.06c4.42,0,8-3.58,8-8c0-0.34-0.02-0.67-0.06-1h94.12
				c-0.04,0.33-0.06,0.66-0.06,1c0,4.42,3.58,8,8,8C121.017,18.677,121.347,18.657,121.677,18.617z"/>
		</g>
		<circle style="fill:none;stroke:#2B3186;stroke-width:4;stroke-miterlimit:10;" cx="66.177" cy="36.177" r="20.5"/>
		<line style="fill:none;stroke:#2B3186;stroke-width:4;stroke-miterlimit:10;" x1="65.677" y1="19.677" x2="65.677" y2="52.677"/>
		<path style="fill:none;stroke:#2B3186;stroke-width:4;stroke-miterlimit:10;" d="M72.677,27.677c0,0-3-4.886-7-5.443
			c0,0-7,0.443-7,7.443c0,0,0,6,7,6.5c0,0,7,1.5,7,7.5c0,0-1,6.119-7,6.56s-7-5.56-7-5.56"/>
	</g>
</g>
<g>
</g>
<g>
</g>
<g>
</g>
<g>
</g>
<g>
</g>
<g>
</g>
<g>
</g>
<g>
</g>
<g>
</g>
<g>
</g>
<g>
</g>
</svg>
