<?xml version="1.0" encoding="iso-8859-1"?>
<!-- Generator: Adobe Illustrator 23.0.1, SVG Export Plug-In . SVG Version: 6.00 Build 0)  -->
<svg version="1.1" id="Capa_1" xmlns="http://www.w3.org/2000/svg" xmlns:xlink="http://www.w3.org/1999/xlink" x="0px" y="0px"
	 viewBox="-49 258.283 512 277.434" style="enable-background:new -49 258.283 512 277.434;" xml:space="preserve">
<path style="fill:#FECB1E;" d="M450.323,289.088c-0.216-0.51-0.443-1.013-0.682-1.509c-1.435-2.979-3.291-5.716-5.49-8.136
	c-2.199-2.42-4.742-4.522-7.552-6.229c-0.468-0.284-0.944-0.558-1.427-0.82c-0.965-0.524-1.959-1.003-2.978-1.435
	c-2.038-0.862-4.177-1.531-6.394-1.985c-2.218-0.454-4.514-0.692-6.865-0.692H302.58v257.435h116.355
	c14.11,0,26.217-8.579,31.389-20.806c0.646-1.528,1.184-3.114,1.604-4.746s0.722-3.313,0.897-5.031
	c0.116-1.145,0.176-2.307,0.176-3.483l0,0V302.348l0,0c0-3.528-0.536-6.93-1.531-10.13
	C451.137,291.151,450.754,290.107,450.323,289.088z"/>
<path style="fill:#323CBD;" d="M418.935,258.283H302.58H-4.935C-29.232,258.283-49,278.05-49,302.348v189.304
	c0,24.298,19.768,44.065,44.065,44.065H302.58h116.354c24.298,0,44.065-19.768,44.065-44.065V302.348
	C463,278.05,443.232,258.283,418.935,258.283z M443,491.652c0,13.27-10.796,24.065-24.065,24.065H312.58V383.335
	c0-5.523-4.478-10-10-10s-10,4.477-10,10v132.382H-4.935c-13.27,0-24.065-10.796-24.065-24.065V302.348
	c0-13.27,10.796-24.065,24.065-24.065H292.58v25.053c0,5.523,4.478,10,10,10s10-4.477,10-10v-25.053h106.354
	c13.27,0,24.065,10.796,24.065,24.065v189.304H443z"/>
<path style="display:none;" d="M99.101,368.486L59.427,333.77v-14.265c0-5.523-4.478-10-10-10s-10,4.477-10,10v14.265
	l-39.675,34.716c-4.156,3.637-4.577,9.955-0.94,14.111c3.637,4.157,9.955,4.577,14.11,0.941l26.505-23.192v66.287l-15.15,11.622
	c-4.383,3.361-5.21,9.639-1.849,14.021c1.97,2.567,4.938,3.914,7.941,3.914c2.124,0,4.265-0.674,6.079-2.066l12.979-9.955
	l12.977,9.955c4.383,3.362,10.659,2.535,14.021-1.848c3.361-4.382,2.534-10.659-1.848-14.021l-15.15-11.622v-66.287l26.504,23.192
	c1.896,1.66,4.244,2.475,6.581,2.475c2.783,0,5.553-1.155,7.529-3.415C103.678,378.44,103.257,372.123,99.101,368.486z"/>
<path style="fill:#323CBD;" d="M411.564,441.665h-63.023c-5.522,0-10,4.477-10,10c0,5.523,4.478,10,10,10h63.023
	c5.522,0,10-4.477,10-10C421.564,446.142,417.087,441.665,411.564,441.665z"/>
<path style="fill:#323CBD;" d="M411.564,477.726h-63.023c-5.522,0-10,4.477-10,10c0,5.523,4.478,10,10,10h63.023
	c5.522,0,10-4.477,10-10S417.087,477.726,411.564,477.726z"/>
<path style="fill:#323CBD;" d="M357.781,375.718c-0.25-0.61-0.561-1.19-0.92-1.73c-0.37-0.55-0.78-1.06-1.25-1.52
	c-2.32-2.32-5.771-3.39-9.021-2.73c-0.64,0.13-1.27,0.32-1.87,0.57c-0.6,0.25-1.189,0.56-1.729,0.92
	c-0.55,0.36-1.061,0.78-1.521,1.24c-0.46,0.46-0.88,0.97-1.239,1.52c-0.36,0.54-0.671,1.12-0.921,1.73
	c-0.25,0.6-0.439,1.23-0.569,1.87c-0.13,0.64-0.2,1.3-0.2,1.95c0,2.63,1.07,5.21,2.93,7.07c0.46,0.46,0.971,0.88,1.521,1.24
	c0.54,0.37,1.13,0.67,1.729,0.92c0.601,0.25,1.23,0.45,1.87,0.57c0.65,0.13,1.3,0.2,1.96,0.2c2.63,0,5.2-1.07,7.061-2.93
	c1.87-1.86,2.939-4.44,2.939-7.07c0-0.65-0.069-1.31-0.2-1.95C358.22,376.948,358.031,376.318,357.781,375.718z"/>
<path style="fill:#323CBD;" d="M357.77,411.774c-0.25-0.6-0.55-1.18-0.91-1.73c-0.369-0.54-0.79-1.05-1.25-1.52
	c-0.46-0.46-0.97-0.88-1.52-1.24c-0.54-0.36-1.12-0.67-1.73-0.92c-0.6-0.25-1.229-0.44-1.869-0.57c-1.29-0.26-2.62-0.26-3.9,0
	c-0.64,0.13-1.271,0.32-1.88,0.57c-0.601,0.25-1.181,0.56-1.72,0.92c-0.551,0.36-1.061,0.78-1.521,1.24
	c-0.46,0.47-0.88,0.98-1.25,1.52c-0.36,0.55-0.66,1.13-0.91,1.73c-0.25,0.6-0.45,1.23-0.58,1.87c-0.12,0.65-0.189,1.3-0.189,1.96
	c0,0.65,0.069,1.3,0.189,1.95c0.13,0.64,0.33,1.27,0.58,1.87s0.55,1.18,0.91,1.73c0.37,0.54,0.79,1.06,1.25,1.52
	c0.46,0.46,0.97,0.88,1.521,1.24c0.539,0.36,1.119,0.67,1.72,0.92c0.609,0.25,1.24,0.44,1.88,0.57s1.3,0.2,1.95,0.2
	c0.649,0,1.31-0.07,1.95-0.2c0.64-0.13,1.27-0.32,1.869-0.57c0.61-0.25,1.19-0.56,1.73-0.92c0.55-0.36,1.06-0.78,1.52-1.24
	c0.46-0.46,0.881-0.98,1.25-1.52c0.36-0.55,0.66-1.13,0.91-1.73c0.25-0.6,0.45-1.23,0.58-1.87c0.13-0.65,0.19-1.3,0.19-1.95
	c0-0.66-0.061-1.31-0.19-1.96C358.22,413.004,358.02,412.374,357.77,411.774z"/>
<path style="fill:#323CBD;" d="M224.174,503.45H53.861c-5.5,0-10-4.5-10-10v0c0-5.5,4.5-10,10-10h170.313c5.5,0,10,4.5,10,10v0
	C234.174,498.95,229.674,503.45,224.174,503.45z"/>
<path style="fill:#323CBD;" d="M292.58,444.698V274.386c0-5.5,4.5-10,10-10l0,0c5.5,0,10,4.5,10,10v170.313c0,5.5-4.5,10-10,10l0,0
	C297.08,454.698,292.58,450.198,292.58,444.698z"/>
<path style="fill:#323CBD;" d="M305.597,335.104h143.855c5.079,0,9.235,4.156,9.235,9.235v1.529c0,5.08-4.156,9.236-9.235,9.236
	H305.597c-5.079,0-9.235-4.156-9.235-9.236v-1.529C296.361,339.26,300.517,335.104,305.597,335.104z"/>
<path style="fill:#323CBD;" d="M348.541,298.859h63.023c5.5,0,10,4.5,10,10v0c0,5.5-4.5,10-10,10h-63.023c-5.5,0-10-4.5-10-10v0
	C338.541,303.359,343.041,298.859,348.541,298.859z"/>
<path style="fill:#323CBD;" d="M411.564,425.602h-31.64c-5.5,0-10-4.5-10-10v0c0-5.5,4.5-10,10-10h31.64c5.5,0,10,4.5,10,10v0
	C421.564,421.102,417.064,425.602,411.564,425.602z"/>
<path style="fill:#323CBD;" d="M411.564,389.542h-31.64c-5.5,0-10-4.5-10-10v0c0-5.5,4.5-10,10-10h31.64c5.5,0,10,4.5,10,10v0
	C421.564,385.042,417.064,389.542,411.564,389.542z"/>
<path style="fill:#FECB1E;" d="M54.689,411.544l15.363-12.801h53.879l-10.828,53.992h25.602l33.316-53.992h37.082
	c10.602,0,19.199-8.598,19.199-19.199c0-10.606-8.593-19.203-19.199-19.203h-37.082l-33.316-53.993h-25.602l10.828,53.993H70.052
	l-15.363-12.797H29.092l12.8,32l-12.8,32H54.689z M54.689,411.544"/>
<path style="fill:#323CBD;" d="M138.705,462.735h-25.602c-2.996,0-5.836-1.344-7.734-3.66c-1.899-2.32-2.66-5.367-2.07-8.305
	l8.429-42.027H73.674l-12.579,10.48c-1.796,1.5-4.062,2.321-6.402,2.321H29.092c-3.317,0-6.422-1.649-8.282-4.395
	c-1.859-2.75-2.234-6.238-1.004-9.32l11.317-28.285l-11.317-28.289c-1.23-3.079-0.855-6.571,1.004-9.321
	c1.86-2.746,4.965-4.39,8.282-4.39h25.601c2.34,0,4.606,0.816,6.402,2.316l12.575,10.481h38.058l-8.429-42.028
	c-0.59-2.937,0.171-5.984,2.07-8.305c1.898-2.316,4.738-3.66,7.734-3.66h25.602c3.469,0,6.687,1.797,8.508,4.75l30.386,49.243
	h31.504c16.102,0,29.199,13.101,29.199,29.203c0,16.097-13.097,29.199-29.199,29.199h-31.504l-30.386,49.242
	C145.392,460.938,142.174,462.735,138.705,462.735L138.705,462.735z M125.306,442.736h7.817l30.386-49.242
	c1.825-2.953,5.043-4.75,8.512-4.75h37.082c5.074,0,9.199-4.129,9.199-9.199c0-5.075-4.125-9.2-9.199-9.2h-37.082
	c-3.469,0-6.687-1.796-8.512-4.75l-30.386-49.246h-7.817l8.43,42.028c0.594,2.937-0.168,5.984-2.066,8.304
	c-1.899,2.321-4.739,3.664-7.735,3.664H70.052c-2.339,0-4.605-0.82-6.402-2.32l-12.578-10.48h-7.211l7.316,18.285
	c0.954,2.387,0.954,5.047,0,7.429l-7.316,18.286h7.211l12.578-10.481c1.797-1.5,4.063-2.32,6.402-2.32h53.883
	c2.996,0,5.836,1.344,7.735,3.664c1.898,2.316,2.66,5.363,2.066,8.305L125.306,442.736z M125.306,442.736"/>
</svg>
